<?xml version="1.0" encoding="utf-8"?>
<svg id="Layer_1" xmlns="http://www.w3.org/2000/svg" version="1.1" viewBox="1840.549 1083.422 1426.61 728.615">
  <defs>
    <style>
      .st0 {
        fill: #912626;
      }
    </style>
  </defs>
  <path class="st0" d="M3245.76,1093.93h-275.16l.95,5.4c33.95-.32,53.66,5.54,64.84,18.92,22.28,26.63,27.26,60.01,15.6,99.57l-114.31,394.83-238.18-378.92c-25.08-40.22-31.64-73.73-19.69-100.55,11.06-22.56,33.92-33.84,68.59-33.84l-.95-5.4h-428.18l.95,5.4c5.99,0,12.07.38,18.22,1.05v.08c.33,0,.63.02.95.02,14.1,1.63,28.61,5.05,43.51,10.24.21.13.41.27.62.4,29.31,11.86,55.8,26.59,82.26,44.21.06-.04.13-.09.19-.13,32.22,23.25,58.03,50.07,77.41,80.47l364.42,567.47,48.24-168.72,114.59-398.75c11.35-37.6,34.14-69.73,68.35-96.38,34.21-26.65,70.12-39.97,107.73-39.97l-.95-5.4Z"/>
  <path class="st0" d="M2566.88,1129.24c14.06,26.81,6.38,61.31-23.05,103.49l-144.69,209.92-144.69-209.92c-28.78-42.18-36.13-76.67-22.07-103.49,10.13-19.94,31.22-29.92,63.27-29.92v-5.4h-443.38v5.4c37.6,0,78.96,13.33,124.09,39.97,45.12,26.65,80.44,58.78,105.94,96.38l145.67,210.9-146.65,213.85c-25.84,36.95-61.06,68.67-105.7,95.15-44.63,26.48-85.76,39.73-123.35,39.73v3.92h275.64v-3.92c-32.05-.32-45.5-4.61-50.66-14.06-14.06-26.8-6.71-61.63,22.07-104.47l144.69-208.94,134.05,196.02c27.46,41.2,34.49,74.88,21.09,101.03-10.79,20.28-31.88,30.41-63.27,30.41v3.92h442.89v-3.92c-38.26,0-79.79-13.41-124.58-40.22-44.81-26.8-80.28-59.02-106.43-96.62l-135.25-195,145.67-210.9c21.46-30.84,49.2-58,83.21-81.48-26.47-17.62-63.37-49.24-92.68-61.09,7.73,4.8,13.82,11.2,18.18,19.26Z"/>
  <path class="st0" d="M3427.59,2385.24"/>
</svg>